<svg xmlns="http://www.w3.org/2000/svg" viewBox="0 0 1200 675" width="1200" height="675"><rect width="1200" height="675" fill="#0a0a0c"/><path d="M0 150 H1200" stroke="#8b8b93" stroke-opacity=".22"/><path d="M10 131 V169" stroke="#f0569a" stroke-opacity="0.60" stroke-width="3"/><path d="M24 115 V185" stroke="#f0569a" stroke-opacity="0.71" stroke-width="3"/><path d="M38 133 V167" stroke="#f0569a" stroke-opacity="0.32" stroke-width="3"/><path d="M53 135 V165" stroke="#f0569a" stroke-opacity="0.32" stroke-width="3"/><path d="M67 114 V186" stroke="#f0569a" stroke-opacity="0.26" stroke-width="3"/><path d="M81 121 V179" stroke="#f0569a" stroke-opacity="0.31" stroke-width="3"/><path d="M95 129 V171" stroke="#f0569a" stroke-opacity="0.45" stroke-width="3"/><path d="M109 110 V190" stroke="#f0569a" stroke-opacity="0.56" stroke-width="3"/><path d="M124 139 V161" stroke="#f0569a" stroke-opacity="0.35" stroke-width="3"/><path d="M138 135 V165" stroke="#f0569a" stroke-opacity="0.72" stroke-width="3"/><path d="M152 111 V189" stroke="#f0569a" stroke-opacity="0.68" stroke-width="3"/><path d="M166 110 V190" stroke="#f0569a" stroke-opacity="0.64" stroke-width="3"/><path d="M180 106 V194" stroke="#f0569a" stroke-opacity="0.67" stroke-width="3"/><path d="M195 131 V169" stroke="#f0569a" stroke-opacity="0.71" stroke-width="3"/><path d="M209 122 V178" stroke="#f0569a" stroke-opacity="0.65" stroke-width="3"/><path d="M223 120 V180" stroke="#f0569a" stroke-opacity="0.45" stroke-width="3"/><path d="M237 127 V173" stroke="#f0569a" stroke-opacity="0.45" stroke-width="3"/><path d="M251 129 V171" stroke="#f0569a" stroke-opacity="0.25" stroke-width="3"/><path d="M266 110 V190" stroke="#f0569a" stroke-opacity="0.67" stroke-width="3"/><path d="M280 105 V195" stroke="#f0569a" stroke-opacity="0.61" stroke-width="3"/><path d="M294 120 V180" stroke="#f0569a" stroke-opacity="0.64" stroke-width="3"/><path d="M308 135 V165" stroke="#f0569a" stroke-opacity="0.60" stroke-width="3"/><path d="M322 124 V176" stroke="#f0569a" stroke-opacity="0.29" stroke-width="3"/><path d="M337 133 V167" stroke="#f0569a" stroke-opacity="0.50" stroke-width="3"/><path d="M351 131 V169" stroke="#f0569a" stroke-opacity="0.46" stroke-width="3"/><path d="M365 118 V182" stroke="#f0569a" stroke-opacity="0.43" stroke-width="3"/><path d="M379 135 V165" stroke="#f0569a" stroke-opacity="0.48" stroke-width="3"/><path d="M393 132 V168" stroke="#f0569a" stroke-opacity="0.33" stroke-width="3"/><path d="M408 133 V167" stroke="#f0569a" stroke-opacity="0.41" stroke-width="3"/><path d="M422 137 V163" stroke="#f0569a" stroke-opacity="0.58" stroke-width="3"/><path d="M436 106 V194" stroke="#f0569a" stroke-opacity="0.42" stroke-width="3"/><path d="M450 114 V186" stroke="#f0569a" stroke-opacity="0.76" stroke-width="3"/><path d="M464 138 V162" stroke="#f0569a" stroke-opacity="0.27" stroke-width="3"/><path d="M479 111 V189" stroke="#f0569a" stroke-opacity="0.70" stroke-width="3"/><path d="M493 117 V183" stroke="#f0569a" stroke-opacity="0.28" stroke-width="3"/><path d="M507 125 V175" stroke="#f0569a" stroke-opacity="0.72" stroke-width="3"/><path d="M521 108 V192" stroke="#f0569a" stroke-opacity="0.68" stroke-width="3"/><path d="M535 133 V167" stroke="#f0569a" stroke-opacity="0.71" stroke-width="3"/><path d="M550 127 V173" stroke="#f0569a" stroke-opacity="0.62" stroke-width="3"/><path d="M564 135 V165" stroke="#f0569a" stroke-opacity="0.78" stroke-width="3"/><path d="M578 118 V182" stroke="#f0569a" stroke-opacity="0.63" stroke-width="3"/><path d="M592 132 V168" stroke="#f0569a" stroke-opacity="0.56" stroke-width="3"/><path d="M606 119 V181" stroke="#f0569a" stroke-opacity="0.55" stroke-width="3"/><path d="M621 127 V173" stroke="#f0569a" stroke-opacity="0.63" stroke-width="3"/><path d="M635 128 V172" stroke="#f0569a" stroke-opacity="0.36" stroke-width="3"/><path d="M649 134 V166" stroke="#f0569a" stroke-opacity="0.60" stroke-width="3"/><path d="M663 136 V164" stroke="#f0569a" stroke-opacity="0.32" stroke-width="3"/><path d="M677 138 V162" stroke="#f0569a" stroke-opacity="0.58" stroke-width="3"/><path d="M692 120 V180" stroke="#f0569a" stroke-opacity="0.52" stroke-width="3"/><path d="M706 139 V161" stroke="#f0569a" stroke-opacity="0.45" stroke-width="3"/><path d="M720 128 V172" stroke="#f0569a" stroke-opacity="0.24" stroke-width="3"/><path d="M734 140 V160" stroke="#f0569a" stroke-opacity="0.80" stroke-width="3"/><path d="M748 136 V164" stroke="#f0569a" stroke-opacity="0.37" stroke-width="3"/><path d="M763 130 V170" stroke="#f0569a" stroke-opacity="0.55" stroke-width="3"/><path d="M777 137 V163" stroke="#f0569a" stroke-opacity="0.47" stroke-width="3"/><path d="M791 127 V173" stroke="#f0569a" stroke-opacity="0.70" stroke-width="3"/><path d="M805 140 V160" stroke="#f0569a" stroke-opacity="0.39" stroke-width="3"/><path d="M819 122 V178" stroke="#f0569a" stroke-opacity="0.78" stroke-width="3"/><path d="M834 121 V179" stroke="#f0569a" stroke-opacity="0.47" stroke-width="3"/><path d="M848 116 V184" stroke="#f0569a" stroke-opacity="0.36" stroke-width="3"/><path d="M862 139 V161" stroke="#f0569a" stroke-opacity="0.49" stroke-width="3"/><path d="M876 107 V193" stroke="#f0569a" stroke-opacity="0.64" stroke-width="3"/><path d="M890 131 V169" stroke="#f0569a" stroke-opacity="0.60" stroke-width="3"/><path d="M905 109 V191" stroke="#f0569a" stroke-opacity="0.34" stroke-width="3"/><path d="M919 119 V181" stroke="#f0569a" stroke-opacity="0.40" stroke-width="3"/><path d="M933 131 V169" stroke="#f0569a" stroke-opacity="0.36" stroke-width="3"/><path d="M947 133 V167" stroke="#f0569a" stroke-opacity="0.40" stroke-width="3"/><path d="M961 139 V161" stroke="#f0569a" stroke-opacity="0.43" stroke-width="3"/><path d="M976 137 V163" stroke="#f0569a" stroke-opacity="0.65" stroke-width="3"/><path d="M990 118 V182" stroke="#f0569a" stroke-opacity="0.18" stroke-width="3"/><path d="M1004 112 V188" stroke="#f0569a" stroke-opacity="0.30" stroke-width="3"/><path d="M1018 123 V177" stroke="#f0569a" stroke-opacity="0.52" stroke-width="3"/><path d="M1032 128 V172" stroke="#f0569a" stroke-opacity="0.36" stroke-width="3"/><path d="M1047 124 V176" stroke="#f0569a" stroke-opacity="0.26" stroke-width="3"/><path d="M1061 109 V191" stroke="#f0569a" stroke-opacity="0.25" stroke-width="3"/><path d="M1075 110 V190" stroke="#f0569a" stroke-opacity="0.32" stroke-width="3"/><path d="M1089 129 V171" stroke="#f0569a" stroke-opacity="0.42" stroke-width="3"/><path d="M1103 139 V161" stroke="#f0569a" stroke-opacity="0.26" stroke-width="3"/><path d="M1118 127 V173" stroke="#f0569a" stroke-opacity="0.45" stroke-width="3"/><path d="M1132 108 V192" stroke="#f0569a" stroke-opacity="0.79" stroke-width="3"/><path d="M1146 138 V162" stroke="#f0569a" stroke-opacity="0.51" stroke-width="3"/><path d="M1160 135 V165" stroke="#f0569a" stroke-opacity="0.68" stroke-width="3"/><path d="M1174 128 V172" stroke="#f0569a" stroke-opacity="0.73" stroke-width="3"/><path d="M1189 120 V180" stroke="#f0569a" stroke-opacity="0.26" stroke-width="3"/><path d="M0 340 H1200" stroke="#8b8b93" stroke-opacity=".22"/><path d="M10 330 V350" stroke="#f0569a" stroke-opacity="0.33" stroke-width="3"/><path d="M24 299 V381" stroke="#f0569a" stroke-opacity="0.27" stroke-width="3"/><path d="M38 313 V367" stroke="#f0569a" stroke-opacity="0.41" stroke-width="3"/><path d="M53 318 V362" stroke="#f0569a" stroke-opacity="0.68" stroke-width="3"/><path d="M67 322 V358" stroke="#f0569a" stroke-opacity="0.63" stroke-width="3"/><path d="M81 306 V374" stroke="#f0569a" stroke-opacity="0.76" stroke-width="3"/><path d="M95 311 V369" stroke="#f0569a" stroke-opacity="0.75" stroke-width="3"/><path d="M109 314 V366" stroke="#f0569a" stroke-opacity="0.54" stroke-width="3"/><path d="M124 308 V372" stroke="#f0569a" stroke-opacity="0.70" stroke-width="3"/><path d="M138 298 V382" stroke="#f0569a" stroke-opacity="0.25" stroke-width="3"/><path d="M152 325 V355" stroke="#f0569a" stroke-opacity="0.51" stroke-width="3"/><path d="M166 301 V379" stroke="#f0569a" stroke-opacity="0.51" stroke-width="3"/><path d="M180 319 V361" stroke="#f0569a" stroke-opacity="0.78" stroke-width="3"/><path d="M195 319 V361" stroke="#f0569a" stroke-opacity="0.23" stroke-width="3"/><path d="M209 328 V352" stroke="#f0569a" stroke-opacity="0.20" stroke-width="3"/><path d="M223 304 V376" stroke="#f0569a" stroke-opacity="0.25" stroke-width="3"/><path d="M237 304 V376" stroke="#f0569a" stroke-opacity="0.72" stroke-width="3"/><path d="M251 294 V386" stroke="#f0569a" stroke-opacity="0.68" stroke-width="3"/><path d="M266 315 V365" stroke="#f0569a" stroke-opacity="0.57" stroke-width="3"/><path d="M280 300 V380" stroke="#f0569a" stroke-opacity="0.62" stroke-width="3"/><path d="M294 320 V360" stroke="#f0569a" stroke-opacity="0.65" stroke-width="3"/><path d="M308 326 V354" stroke="#f0569a" stroke-opacity="0.37" stroke-width="3"/><path d="M322 294 V386" stroke="#f0569a" stroke-opacity="0.47" stroke-width="3"/><path d="M337 320 V360" stroke="#f0569a" stroke-opacity="0.67" stroke-width="3"/><path d="M351 314 V366" stroke="#f0569a" stroke-opacity="0.18" stroke-width="3"/><path d="M365 329 V351" stroke="#f0569a" stroke-opacity="0.34" stroke-width="3"/><path d="M379 318 V362" stroke="#f0569a" stroke-opacity="0.76" stroke-width="3"/><path d="M393 321 V359" stroke="#f0569a" stroke-opacity="0.71" stroke-width="3"/><path d="M408 299 V381" stroke="#f0569a" stroke-opacity="0.44" stroke-width="3"/><path d="M422 294 V386" stroke="#f0569a" stroke-opacity="0.65" stroke-width="3"/><path d="M436 313 V367" stroke="#f0569a" stroke-opacity="0.34" stroke-width="3"/><path d="M450 313 V367" stroke="#f0569a" stroke-opacity="0.74" stroke-width="3"/><path d="M464 311 V369" stroke="#f0569a" stroke-opacity="0.30" stroke-width="3"/><path d="M479 316 V364" stroke="#f0569a" stroke-opacity="0.48" stroke-width="3"/><path d="M493 323 V357" stroke="#f0569a" stroke-opacity="0.54" stroke-width="3"/><path d="M507 329 V351" stroke="#f0569a" stroke-opacity="0.69" stroke-width="3"/><path d="M521 324 V356" stroke="#f0569a" stroke-opacity="0.24" stroke-width="3"/><path d="M535 309 V371" stroke="#f0569a" stroke-opacity="0.37" stroke-width="3"/><path d="M550 298 V382" stroke="#f0569a" stroke-opacity="0.49" stroke-width="3"/><path d="M564 311 V369" stroke="#f0569a" stroke-opacity="0.70" stroke-width="3"/><path d="M578 322 V358" stroke="#f0569a" stroke-opacity="0.64" stroke-width="3"/><path d="M592 307 V373" stroke="#f0569a" stroke-opacity="0.45" stroke-width="3"/><path d="M606 295 V385" stroke="#f0569a" stroke-opacity="0.19" stroke-width="3"/><path d="M621 299 V381" stroke="#f0569a" stroke-opacity="0.27" stroke-width="3"/><path d="M635 300 V380" stroke="#f0569a" stroke-opacity="0.28" stroke-width="3"/><path d="M649 328 V352" stroke="#f0569a" stroke-opacity="0.49" stroke-width="3"/><path d="M663 297 V383" stroke="#f0569a" stroke-opacity="0.34" stroke-width="3"/><path d="M677 312 V368" stroke="#f0569a" stroke-opacity="0.56" stroke-width="3"/><path d="M692 321 V359" stroke="#f0569a" stroke-opacity="0.51" stroke-width="3"/><path d="M706 330 V350" stroke="#f0569a" stroke-opacity="0.46" stroke-width="3"/><path d="M720 303 V377" stroke="#f0569a" stroke-opacity="0.39" stroke-width="3"/><path d="M734 322 V358" stroke="#f0569a" stroke-opacity="0.21" stroke-width="3"/><path d="M748 305 V375" stroke="#f0569a" stroke-opacity="0.44" stroke-width="3"/><path d="M763 297 V383" stroke="#f0569a" stroke-opacity="0.64" stroke-width="3"/><path d="M777 326 V354" stroke="#f0569a" stroke-opacity="0.75" stroke-width="3"/><path d="M791 296 V384" stroke="#f0569a" stroke-opacity="0.69" stroke-width="3"/><path d="M805 300 V380" stroke="#f0569a" stroke-opacity="0.60" stroke-width="3"/><path d="M819 304 V376" stroke="#f0569a" stroke-opacity="0.59" stroke-width="3"/><path d="M834 309 V371" stroke="#f0569a" stroke-opacity="0.34" stroke-width="3"/><path d="M848 325 V355" stroke="#f0569a" stroke-opacity="0.63" stroke-width="3"/><path d="M862 309 V371" stroke="#f0569a" stroke-opacity="0.22" stroke-width="3"/><path d="M876 307 V373" stroke="#f0569a" stroke-opacity="0.56" stroke-width="3"/><path d="M890 312 V368" stroke="#f0569a" stroke-opacity="0.66" stroke-width="3"/><path d="M905 298 V382" stroke="#f0569a" stroke-opacity="0.42" stroke-width="3"/><path d="M919 301 V379" stroke="#f0569a" stroke-opacity="0.49" stroke-width="3"/><path d="M933 309 V371" stroke="#f0569a" stroke-opacity="0.44" stroke-width="3"/><path d="M947 296 V384" stroke="#f0569a" stroke-opacity="0.46" stroke-width="3"/><path d="M961 296 V384" stroke="#f0569a" stroke-opacity="0.39" stroke-width="3"/><path d="M976 306 V374" stroke="#f0569a" stroke-opacity="0.75" stroke-width="3"/><path d="M990 305 V375" stroke="#f0569a" stroke-opacity="0.41" stroke-width="3"/><path d="M1004 327 V353" stroke="#f0569a" stroke-opacity="0.48" stroke-width="3"/><path d="M1018 315 V365" stroke="#f0569a" stroke-opacity="0.68" stroke-width="3"/><path d="M1032 302 V378" stroke="#f0569a" stroke-opacity="0.79" stroke-width="3"/><path d="M1047 314 V366" stroke="#f0569a" stroke-opacity="0.43" stroke-width="3"/><path d="M1061 310 V370" stroke="#f0569a" stroke-opacity="0.64" stroke-width="3"/><path d="M1075 327 V353" stroke="#f0569a" stroke-opacity="0.31" stroke-width="3"/><path d="M1089 325 V355" stroke="#f0569a" stroke-opacity="0.38" stroke-width="3"/><path d="M1103 319 V361" stroke="#f0569a" stroke-opacity="0.78" stroke-width="3"/><path d="M1118 323 V357" stroke="#f0569a" stroke-opacity="0.76" stroke-width="3"/><path d="M1132 319 V361" stroke="#f0569a" stroke-opacity="0.31" stroke-width="3"/><path d="M1146 295 V385" stroke="#f0569a" stroke-opacity="0.24" stroke-width="3"/><path d="M1160 326 V354" stroke="#f0569a" stroke-opacity="0.26" stroke-width="3"/><path d="M1174 328 V352" stroke="#f0569a" stroke-opacity="0.42" stroke-width="3"/><path d="M1189 322 V358" stroke="#f0569a" stroke-opacity="0.28" stroke-width="3"/><path d="M0 530 H1200" stroke="#8b8b93" stroke-opacity=".22"/><path d="M10 519 V541" stroke="#f0569a" stroke-opacity="0.61" stroke-width="3"/><path d="M24 518 V542" stroke="#f0569a" stroke-opacity="0.32" stroke-width="3"/><path d="M38 500 V560" stroke="#f0569a" stroke-opacity="0.73" stroke-width="3"/><path d="M53 496 V564" stroke="#f0569a" stroke-opacity="0.62" stroke-width="3"/><path d="M67 495 V565" stroke="#f0569a" stroke-opacity="0.67" stroke-width="3"/><path d="M81 489 V571" stroke="#f0569a" stroke-opacity="0.28" stroke-width="3"/><path d="M95 518 V542" stroke="#f0569a" stroke-opacity="0.56" stroke-width="3"/><path d="M109 501 V559" stroke="#f0569a" stroke-opacity="0.50" stroke-width="3"/><path d="M124 492 V568" stroke="#f0569a" stroke-opacity="0.29" stroke-width="3"/><path d="M138 495 V565" stroke="#f0569a" stroke-opacity="0.44" stroke-width="3"/><path d="M152 505 V555" stroke="#f0569a" stroke-opacity="0.33" stroke-width="3"/><path d="M166 510 V550" stroke="#f0569a" stroke-opacity="0.54" stroke-width="3"/><path d="M180 500 V560" stroke="#f0569a" stroke-opacity="0.74" stroke-width="3"/><path d="M195 510 V550" stroke="#f0569a" stroke-opacity="0.62" stroke-width="3"/><path d="M209 517 V543" stroke="#f0569a" stroke-opacity="0.58" stroke-width="3"/><path d="M223 514 V546" stroke="#f0569a" stroke-opacity="0.71" stroke-width="3"/><path d="M237 485 V575" stroke="#f0569a" stroke-opacity="0.34" stroke-width="3"/><path d="M251 491 V569" stroke="#f0569a" stroke-opacity="0.32" stroke-width="3"/><path d="M266 509 V551" stroke="#f0569a" stroke-opacity="0.24" stroke-width="3"/><path d="M280 504 V556" stroke="#f0569a" stroke-opacity="0.24" stroke-width="3"/><path d="M294 495 V565" stroke="#f0569a" stroke-opacity="0.54" stroke-width="3"/><path d="M308 505 V555" stroke="#f0569a" stroke-opacity="0.62" stroke-width="3"/><path d="M322 512 V548" stroke="#f0569a" stroke-opacity="0.39" stroke-width="3"/><path d="M337 507 V553" stroke="#f0569a" stroke-opacity="0.18" stroke-width="3"/><path d="M351 488 V572" stroke="#f0569a" stroke-opacity="0.23" stroke-width="3"/><path d="M365 516 V544" stroke="#f0569a" stroke-opacity="0.67" stroke-width="3"/><path d="M379 491 V569" stroke="#f0569a" stroke-opacity="0.46" stroke-width="3"/><path d="M393 505 V555" stroke="#f0569a" stroke-opacity="0.27" stroke-width="3"/><path d="M408 520 V540" stroke="#f0569a" stroke-opacity="0.50" stroke-width="3"/><path d="M422 511 V549" stroke="#f0569a" stroke-opacity="0.27" stroke-width="3"/><path d="M436 487 V573" stroke="#f0569a" stroke-opacity="0.19" stroke-width="3"/><path d="M450 507 V553" stroke="#f0569a" stroke-opacity="0.65" stroke-width="3"/><path d="M464 493 V567" stroke="#f0569a" stroke-opacity="0.25" stroke-width="3"/><path d="M479 493 V567" stroke="#f0569a" stroke-opacity="0.53" stroke-width="3"/><path d="M493 497 V563" stroke="#f0569a" stroke-opacity="0.76" stroke-width="3"/><path d="M507 491 V569" stroke="#f0569a" stroke-opacity="0.55" stroke-width="3"/><path d="M521 492 V568" stroke="#f0569a" stroke-opacity="0.48" stroke-width="3"/><path d="M535 500 V560" stroke="#f0569a" stroke-opacity="0.69" stroke-width="3"/><path d="M550 498 V562" stroke="#f0569a" stroke-opacity="0.41" stroke-width="3"/><path d="M564 519 V541" stroke="#f0569a" stroke-opacity="0.67" stroke-width="3"/><path d="M578 508 V552" stroke="#f0569a" stroke-opacity="0.45" stroke-width="3"/><path d="M592 510 V550" stroke="#f0569a" stroke-opacity="0.52" stroke-width="3"/><path d="M606 506 V554" stroke="#f0569a" stroke-opacity="0.70" stroke-width="3"/><path d="M621 499 V561" stroke="#f0569a" stroke-opacity="0.53" stroke-width="3"/><path d="M635 492 V568" stroke="#f0569a" stroke-opacity="0.45" stroke-width="3"/><path d="M649 501 V559" stroke="#f0569a" stroke-opacity="0.65" stroke-width="3"/><path d="M663 494 V566" stroke="#f0569a" stroke-opacity="0.64" stroke-width="3"/><path d="M677 488 V572" stroke="#f0569a" stroke-opacity="0.53" stroke-width="3"/><path d="M692 500 V560" stroke="#f0569a" stroke-opacity="0.30" stroke-width="3"/><path d="M706 511 V549" stroke="#f0569a" stroke-opacity="0.45" stroke-width="3"/><path d="M720 502 V558" stroke="#f0569a" stroke-opacity="0.74" stroke-width="3"/><path d="M734 518 V542" stroke="#f0569a" stroke-opacity="0.40" stroke-width="3"/><path d="M748 493 V567" stroke="#f0569a" stroke-opacity="0.46" stroke-width="3"/><path d="M763 489 V571" stroke="#f0569a" stroke-opacity="0.28" stroke-width="3"/><path d="M777 492 V568" stroke="#f0569a" stroke-opacity="0.45" stroke-width="3"/><path d="M791 500 V560" stroke="#f0569a" stroke-opacity="0.22" stroke-width="3"/><path d="M805 505 V555" stroke="#f0569a" stroke-opacity="0.68" stroke-width="3"/><path d="M819 494 V566" stroke="#f0569a" stroke-opacity="0.53" stroke-width="3"/><path d="M834 505 V555" stroke="#f0569a" stroke-opacity="0.20" stroke-width="3"/><path d="M848 495 V565" stroke="#f0569a" stroke-opacity="0.46" stroke-width="3"/><path d="M862 494 V566" stroke="#f0569a" stroke-opacity="0.56" stroke-width="3"/><path d="M876 506 V554" stroke="#f0569a" stroke-opacity="0.72" stroke-width="3"/><path d="M890 515 V545" stroke="#f0569a" stroke-opacity="0.77" stroke-width="3"/><path d="M905 517 V543" stroke="#f0569a" stroke-opacity="0.78" stroke-width="3"/><path d="M919 499 V561" stroke="#f0569a" stroke-opacity="0.46" stroke-width="3"/><path d="M933 486 V574" stroke="#f0569a" stroke-opacity="0.50" stroke-width="3"/><path d="M947 502 V558" stroke="#f0569a" stroke-opacity="0.22" stroke-width="3"/><path d="M961 491 V569" stroke="#f0569a" stroke-opacity="0.58" stroke-width="3"/><path d="M976 511 V549" stroke="#f0569a" stroke-opacity="0.25" stroke-width="3"/><path d="M990 505 V555" stroke="#f0569a" stroke-opacity="0.76" stroke-width="3"/><path d="M1004 489 V571" stroke="#f0569a" stroke-opacity="0.47" stroke-width="3"/><path d="M1018 519 V541" stroke="#f0569a" stroke-opacity="0.69" stroke-width="3"/><path d="M1032 513 V547" stroke="#f0569a" stroke-opacity="0.63" stroke-width="3"/><path d="M1047 502 V558" stroke="#f0569a" stroke-opacity="0.78" stroke-width="3"/><path d="M1061 515 V545" stroke="#f0569a" stroke-opacity="0.67" stroke-width="3"/><path d="M1075 494 V566" stroke="#f0569a" stroke-opacity="0.19" stroke-width="3"/><path d="M1089 500 V560" stroke="#f0569a" stroke-opacity="0.36" stroke-width="3"/><path d="M1103 495 V565" stroke="#f0569a" stroke-opacity="0.78" stroke-width="3"/><path d="M1118 496 V564" stroke="#f0569a" stroke-opacity="0.49" stroke-width="3"/><path d="M1132 498 V562" stroke="#f0569a" stroke-opacity="0.33" stroke-width="3"/><path d="M1146 503 V557" stroke="#f0569a" stroke-opacity="0.25" stroke-width="3"/><path d="M1160 494 V566" stroke="#f0569a" stroke-opacity="0.22" stroke-width="3"/><path d="M1174 501 V559" stroke="#f0569a" stroke-opacity="0.29" stroke-width="3"/><path d="M1189 500 V560" stroke="#f0569a" stroke-opacity="0.22" stroke-width="3"/><text x="600.0" y="355.5" text-anchor="middle" font-family="IBM Plex Mono, monospace" font-size="76" fill="#f2f2f4" letter-spacing="-2">protocol</text></svg>